HIERARCHY
ROOT mixamorig:Hips
{
	OFFSET -0.000008 104.274872 1.554316
	CHANNELS 6 Xposition Yposition Zposition Xrotation Yrotation Zrotation
	JOINT mixamorig:Spine
	{
		OFFSET -0.000005 10.181595 0.131519
		CHANNELS 6 Xposition Yposition Zposition Xrotation Yrotation Zrotation
		JOINT mixamorig:Spine1
		{
			OFFSET -0.000000 9.893959 -1.470707
			CHANNELS 6 Xposition Yposition Zposition Xrotation Yrotation Zrotation
			JOINT mixamorig:Spine2
			{
				OFFSET -0.000000 9.220757 -1.370641
				CHANNELS 6 Xposition Yposition Zposition Xrotation Yrotation Zrotation
				JOINT mixamorig:Neck
				{
					OFFSET 0.000001 16.740417 -2.049036
					CHANNELS 6 Xposition Yposition Zposition Xrotation Yrotation Zrotation
					JOINT mixamorig:Head
					{
						OFFSET 0.000000 9.617874 1.685006
						CHANNELS 6 Xposition Yposition Zposition Xrotation Yrotation Zrotation
						JOINT mixamorig:HeadTop_End
						{
							OFFSET 0.000002 22.037354 7.501101
							CHANNELS 6 Xposition Yposition Zposition Xrotation Yrotation Zrotation
							End Site
							{
								OFFSET 0.000168 2310.654297 -282.823242
							}
						}
					}
				}
				JOINT mixamorig:RightShoulder
				{
					OFFSET -4.569970 11.014908 -2.160885
					CHANNELS 6 Xposition Yposition Zposition Xrotation Yrotation Zrotation
					JOINT mixamorig:RightArm
					{
						OFFSET -10.592851 -0.524811 -2.232101
						CHANNELS 6 Xposition Yposition Zposition Xrotation Yrotation Zrotation
						JOINT mixamorig:RightForeArm
						{
							OFFSET -27.841511 0.000031 -0.000004
							CHANNELS 6 Xposition Yposition Zposition Xrotation Yrotation Zrotation
							JOINT mixamorig:RightHand
							{
								OFFSET -28.328831 -0.000015 0.000015
								CHANNELS 6 Xposition Yposition Zposition Xrotation Yrotation Zrotation
								JOINT mixamorig:RightHandThumb1
								{
									OFFSET -2.464806 -1.573990 2.681852
									CHANNELS 6 Xposition Yposition Zposition Xrotation Yrotation Zrotation
									JOINT mixamorig:RightHandThumb2
									{
										OFFSET -3.215179 -1.872803 1.924282
										CHANNELS 6 Xposition Yposition Zposition Xrotation Yrotation Zrotation
										JOINT mixamorig:RightHandThumb3
										{
											OFFSET -2.654831 -1.527969 1.512609
											CHANNELS 6 Xposition Yposition Zposition Xrotation Yrotation Zrotation
											JOINT mixamorig:RightHandThumb4
											{
												OFFSET -2.018814 -1.152008 1.108052
												CHANNELS 6 Xposition Yposition Zposition Xrotation Yrotation Zrotation
												End Site
												{
													OFFSET -188.809540 -114.533607 132.431396
												}
											}
										}
									}
								}
								JOINT mixamorig:RightHandIndex1
								{
									OFFSET -9.108284 -0.517868 2.259835
									CHANNELS 6 Xposition Yposition Zposition Xrotation Yrotation Zrotation
									JOINT mixamorig:RightHandIndex2
									{
										OFFSET -3.699989 0.000000 0.001215
										CHANNELS 6 Xposition Yposition Zposition Xrotation Yrotation Zrotation
										JOINT mixamorig:RightHandIndex3
										{
											OFFSET -2.850006 0.000031 -0.000522
											CHANNELS 6 Xposition Yposition Zposition Xrotation Yrotation Zrotation
											JOINT mixamorig:RightHandIndex4
											{
												OFFSET -2.772186 -0.000015 -0.000020
												CHANNELS 6 Xposition Yposition Zposition Xrotation Yrotation Zrotation
												End Site
												{
													OFFSET -277.218445 0.000000 -0.050231
												}
											}
										}
									}
								}
								JOINT mixamorig:RightHandMiddle1
								{
									OFFSET -9.532516 -0.000031 -0.000023
									CHANNELS 6 Xposition Yposition Zposition Xrotation Yrotation Zrotation
									JOINT mixamorig:RightHandMiddle2
									{
										OFFSET -3.700005 -0.000015 0.003713
										CHANNELS 6 Xposition Yposition Zposition Xrotation Yrotation Zrotation
										JOINT mixamorig:RightHandMiddle3
										{
											OFFSET -2.949974 0.000015 -0.002054
											CHANNELS 6 Xposition Yposition Zposition Xrotation Yrotation Zrotation
											JOINT mixamorig:RightHandMiddle4
											{
												OFFSET -2.946640 0.000000 -0.000156
												CHANNELS 6 Xposition Yposition Zposition Xrotation Yrotation Zrotation
												End Site
												{
													OFFSET -294.664337 0.000000 -0.113670
												}
											}
										}
									}
								}
								JOINT mixamorig:RightHandRing1
								{
									OFFSET -9.103600 -0.043076 -1.865134
									CHANNELS 6 Xposition Yposition Zposition Xrotation Yrotation Zrotation
									JOINT mixamorig:RightHandRing2
									{
										OFFSET -3.379288 0.000000 -0.001055
										CHANNELS 6 Xposition Yposition Zposition Xrotation Yrotation Zrotation
										JOINT mixamorig:RightHandRing3
										{
											OFFSET -2.889687 -0.000015 0.000379
											CHANNELS 6 Xposition Yposition Zposition Xrotation Yrotation Zrotation
											JOINT mixamorig:RightHandRing4
											{
												OFFSET -2.638809 -0.000015 0.000941
												CHANNELS 6 Xposition Yposition Zposition Xrotation Yrotation Zrotation
												End Site
												{
													OFFSET -263.880371 0.000000 0.516020
												}
											}
										}
									}
								}
								JOINT mixamorig:RightHandPinky1
								{
									OFFSET -8.076683 -0.486710 -3.806280
									CHANNELS 6 Xposition Yposition Zposition Xrotation Yrotation Zrotation
									JOINT mixamorig:RightHandPinky2
									{
										OFFSET -3.600014 -0.000015 -0.003747
										CHANNELS 6 Xposition Yposition Zposition Xrotation Yrotation Zrotation
										JOINT mixamorig:RightHandPinky3
										{
											OFFSET -2.099983 0.000000 -0.005739
											CHANNELS 6 Xposition Yposition Zposition Xrotation Yrotation Zrotation
											JOINT mixamorig:RightHandPinky4
											{
												OFFSET -2.115768 -0.000031 -0.003680
												CHANNELS 6 Xposition Yposition Zposition Xrotation Yrotation Zrotation
												End Site
												{
													OFFSET -211.577087 0.000000 -0.350686
												}
											}
										}
									}
								}
							}
						}
					}
				}
				JOINT mixamorig:LeftShoulder
				{
					OFFSET 4.570447 11.014725 -2.160855
					CHANNELS 6 Xposition Yposition Zposition Xrotation Yrotation Zrotation
					JOINT mixamorig:LeftArm
					{
						OFFSET 10.592371 -0.524597 -2.232119
						CHANNELS 6 Xposition Yposition Zposition Xrotation Yrotation Zrotation
						JOINT mixamorig:LeftForeArm
						{
							OFFSET 27.841532 -0.000031 0.000026
							CHANNELS 6 Xposition Yposition Zposition Xrotation Yrotation Zrotation
							JOINT mixamorig:LeftHand
							{
								OFFSET 28.328846 -0.000061 0.000022
								CHANNELS 6 Xposition Yposition Zposition Xrotation Yrotation Zrotation
								JOINT mixamorig:LeftHandThumb1
								{
									OFFSET 2.466141 -1.576172 2.681732
									CHANNELS 6 Xposition Yposition Zposition Xrotation Yrotation Zrotation
									JOINT mixamorig:LeftHandThumb2
									{
										OFFSET 3.217812 -1.872070 1.916482
										CHANNELS 6 Xposition Yposition Zposition Xrotation Yrotation Zrotation
										JOINT mixamorig:LeftHandThumb3
										{
											OFFSET 2.656029 -1.528778 1.514513
											CHANNELS 6 Xposition Yposition Zposition Xrotation Yrotation Zrotation
											JOINT mixamorig:LeftHandThumb4
											{
												OFFSET 2.020889 -1.154053 1.115139
												CHANNELS 6 Xposition Yposition Zposition Xrotation Yrotation Zrotation
												End Site
												{
													OFFSET 190.885437 -115.081749 130.048782
												}
											}
										}
									}
								}
								JOINT mixamorig:LeftHandIndex1
								{
									OFFSET 9.109314 -0.518021 2.259871
									CHANNELS 6 Xposition Yposition Zposition Xrotation Yrotation Zrotation
									JOINT mixamorig:LeftHandIndex2
									{
										OFFSET 3.699989 0.000000 -0.000322
										CHANNELS 6 Xposition Yposition Zposition Xrotation Yrotation Zrotation
										JOINT mixamorig:LeftHandIndex3
										{
											OFFSET 2.850006 0.000000 0.000352
											CHANNELS 6 Xposition Yposition Zposition Xrotation Yrotation Zrotation
											JOINT mixamorig:LeftHandIndex4
											{
												OFFSET 2.774864 -0.000031 -0.000027
												CHANNELS 6 Xposition Yposition Zposition Xrotation Yrotation Zrotation
												End Site
												{
													OFFSET 277.486267 0.000000 -0.009857
												}
											}
										}
									}
								}
								JOINT mixamorig:LeftHandMiddle1
								{
									OFFSET 9.533394 0.000061 0.000044
									CHANNELS 6 Xposition Yposition Zposition Xrotation Yrotation Zrotation
									JOINT mixamorig:LeftHandMiddle2
									{
										OFFSET 3.699989 -0.000015 -0.000231
										CHANNELS 6 Xposition Yposition Zposition Xrotation Yrotation Zrotation
										JOINT mixamorig:LeftHandMiddle3
										{
											OFFSET 2.949997 -0.000015 -0.000059
											CHANNELS 6 Xposition Yposition Zposition Xrotation Yrotation Zrotation
											JOINT mixamorig:LeftHandMiddle4
											{
												OFFSET 2.952896 0.000031 0.000063
												CHANNELS 6 Xposition Yposition Zposition Xrotation Yrotation Zrotation
												End Site
												{
													OFFSET 295.289337 0.000000 0.022810
												}
											}
										}
									}
								}
								JOINT mixamorig:LeftHandRing1
								{
									OFFSET 9.104523 -0.042999 -1.865074
									CHANNELS 6 Xposition Yposition Zposition Xrotation Yrotation Zrotation
									JOINT mixamorig:LeftHandRing2
									{
										OFFSET 3.150009 -0.000031 0.000043
										CHANNELS 6 Xposition Yposition Zposition Xrotation Yrotation Zrotation
										JOINT mixamorig:LeftHandRing3
										{
											OFFSET 2.949982 -0.000015 0.000040
											CHANNELS 6 Xposition Yposition Zposition Xrotation Yrotation Zrotation
											JOINT mixamorig:LeftHandRing4
											{
												OFFSET 2.644348 0.000000 0.000057
												CHANNELS 6 Xposition Yposition Zposition Xrotation Yrotation Zrotation
												End Site
												{
													OFFSET 264.434631 0.000000 0.012105
												}
											}
										}
									}
								}
								JOINT mixamorig:LeftHandPinky1
								{
									OFFSET 8.077789 -0.486847 -3.806259
									CHANNELS 6 Xposition Yposition Zposition Xrotation Yrotation Zrotation
									JOINT mixamorig:LeftHandPinky2
									{
										OFFSET 3.599953 0.000031 0.014727
										CHANNELS 6 Xposition Yposition Zposition Xrotation Yrotation Zrotation
										JOINT mixamorig:LeftHandPinky3
										{
											OFFSET 2.100021 0.000015 0.007705
											CHANNELS 6 Xposition Yposition Zposition Xrotation Yrotation Zrotation
											JOINT mixamorig:LeftHandPinky4
											{
												OFFSET 2.125504 0.000031 0.007517
												CHANNELS 6 Xposition Yposition Zposition Xrotation Yrotation Zrotation
												End Site
												{
													OFFSET 212.550781 0.000000 0.625752
												}
											}
										}
									}
								}
							}
						}
					}
				}
			}
		}
	}
	JOINT mixamorig:RightUpLeg
	{
		OFFSET -8.207787 -6.751648 -1.599560
		CHANNELS 6 Xposition Yposition Zposition Xrotation Yrotation Zrotation
		JOINT mixamorig:RightLeg
		{
			OFFSET -0.000002 -44.370117 0.345942
			CHANNELS 6 Xposition Yposition Zposition Xrotation Yrotation Zrotation
			JOINT mixamorig:RightFoot
			{
				OFFSET 0.000003 -44.423679 -3.043532
				CHANNELS 6 Xposition Yposition Zposition Xrotation Yrotation Zrotation
				JOINT mixamorig:RightToeBase
				{
					OFFSET -0.000002 -8.728671 10.710558
					CHANNELS 6 Xposition Yposition Zposition Xrotation Yrotation Zrotation
					JOINT mixamorig:RightToe_End
					{
						OFFSET -0.000001 -0.000679 9.278119
						CHANNELS 6 Xposition Yposition Zposition Xrotation Yrotation Zrotation
						End Site
						{
							OFFSET 0.000000 -0.067690 927.812134
						}
					}
				}
			}
		}
	}
	JOINT mixamorig:LeftUpLeg
	{
		OFFSET 8.207793 -6.751686 -1.599556
		CHANNELS 6 Xposition Yposition Zposition Xrotation Yrotation Zrotation
		JOINT mixamorig:LeftLeg
		{
			OFFSET -0.000004 -44.370014 0.346954
			CHANNELS 6 Xposition Yposition Zposition Xrotation Yrotation Zrotation
			JOINT mixamorig:LeftFoot
			{
				OFFSET -0.000001 -44.423672 -3.044401
				CHANNELS 6 Xposition Yposition Zposition Xrotation Yrotation Zrotation
				JOINT mixamorig:LeftToeBase
				{
					OFFSET -0.000002 -8.728669 10.710558
					CHANNELS 6 Xposition Yposition Zposition Xrotation Yrotation Zrotation
					JOINT mixamorig:LeftToe_End
					{
						OFFSET -0.000003 -0.000679 9.278133
						CHANNELS 6 Xposition Yposition Zposition Xrotation Yrotation Zrotation
						End Site
						{
							OFFSET 0.000000 -0.068021 927.813477
						}
					}
				}
			}
		}
	}
}
MOTION
Frames: 3
Frame Time: 0.033333
0.000006 104.270477 1.554256 0.000010 0.000003 -0.000113 -0.000005 10.181587 0.131522 0.000001 -0.000003 0.000084 -0.000000 9.893967 -1.470711 0.000001 0.000000 -0.000000 -0.000000 9.220802 -1.370642 0.000000 -0.000000 -0.000000 0.000001 16.740433 -2.049030 0.000000 -0.000000 -0.000000 0.000000 9.617859 1.685014 0.000000 0.000000 0.000000 0.000002 22.037384 7.501101 0.000000 -0.000000 0.000000 -4.569968 11.014880 -2.160881 0.000008 0.000001 -0.000038 -10.592863 -0.524664 -2.232030 72.713320 5.165541 -3.803526 -27.841537 0.000015 0.000563 -57.487667 119.306493 86.265289 -28.328821 0.000021 0.000032 -0.000317 -0.000045 0.000007 -2.464422 -1.573894 2.682375 -35.328867 -156.725958 17.716636 -3.215277 -1.872560 1.924654 155.093980 33.085385 12.275033 -2.654950 -1.527869 1.513092 150.310484 26.299775 -36.810570 -2.018835 -1.151996 1.108061 0.000002 0.000003 0.000009 -9.108395 -0.517565 2.260146 104.969557 18.055363 -23.445051 -3.700079 0.000312 0.001530 101.005302 14.793867 -17.872488 -2.850118 0.000363 -0.000244 98.832994 11.514398 -13.424470 -2.772167 -0.000019 -0.000023 0.000002 0.000003 -0.000002 -9.532578 0.000256 0.000251 95.559893 17.139805 -19.017236 -3.700087 0.000326 0.003974 94.523104 13.380459 -14.365816 -2.950067 0.000342 -0.001794 95.236879 11.682772 -12.785879 -2.946637 0.000012 -0.000152 -0.000003 0.000002 -0.000001 -9.103708 -0.042766 -1.864875 92.728178 19.852959 -20.753024 -3.379339 0.000317 -0.000800 93.796932 11.626152 -12.436237 -2.889759 0.000371 0.000636 97.587851 7.089318 -8.145292 -2.638800 -0.000004 0.000942 -0.000000 -0.000002 0.000003 -8.076739 -0.486393 -3.806031 83.572856 18.913364 -16.795582 -3.600056 0.000267 -0.003525 85.979337 9.442329 -8.468926 -2.100019 0.000317 -0.005510 87.356924 5.395797 -4.943990 -2.115788 -0.000056 -0.003685 0.000000 -0.000005 -0.000001 4.570446 11.014691 -2.160851 -0.000018 0.000010 -0.000021 10.592358 -0.524541 -2.232278 68.323154 9.909859 -6.734014 27.841833 0.000115 -0.000213 106.539975 -62.288989 78.004216 28.328833 -0.000015 0.000026 0.000019 -0.000088 -0.000000 2.465914 -1.576106 2.681903 -48.899804 168.711833 13.173390 3.217806 -1.871764 1.916383 157.858362 -29.990415 6.974934 2.656100 -1.528606 1.514450 146.653532 -26.569525 40.270703 2.020891 -1.154097 1.115139 0.000004 0.000006 0.000002 9.109367 -0.517846 2.259724 87.551523 -16.076278 15.399927 3.700034 0.000170 -0.000441 86.551542 -15.518456 14.637963 2.850062 0.000182 0.000199 84.913916 -13.392248 12.261110 2.774877 -0.000045 -0.000022 0.000001 -0.000000 0.000001 9.533452 0.000236 -0.000101 89.240943 -16.294396 16.074005 3.700072 0.000168 -0.000388 89.106983 -14.930368 14.699289 2.950081 0.000180 -0.000188 90.080995 -16.788414 16.814893 2.952855 -0.000033 0.000066 -0.000001 -0.000002 -0.000002 9.104574 -0.042836 -1.865216 87.572348 -15.601452 14.963385 3.150063 0.000216 -0.000093 93.470285 -13.113124 13.926554 2.950024 0.000182 -0.000059 95.274179 -13.568796 14.867006 2.644321 0.000033 0.000045 0.000001 -0.000001 0.000002 8.077816 -0.486732 -3.806403 75.008004 -17.425218 13.876473 3.600013 0.000186 0.014566 77.168789 -12.991979 10.790040 2.100050 0.000179 0.007554 79.783945 -11.116711 9.701807 2.125483 -0.000001 0.007513 0.000003 0.000001 -0.000001 -8.207786 -6.751667 -1.599560 -0.077001 -0.000003 0.000080 -0.000002 -44.370110 0.345938 0.153719 -0.000000 -0.000000 0.000000 -44.423679 -3.043532 -0.076700 0.000000 -0.000002 -0.000006 -8.728667 10.710559 -0.000009 -0.000000 -0.000000 -0.000001 -0.000679 9.278123 0.000000 -0.000000 -0.000000 8.207792 -6.751710 -1.599556 -0.074518 -0.000003 0.000081 -0.000002 -44.370014 0.346960 0.148822 0.000002 0.000000 -0.000001 -44.423664 -3.044403 -0.074314 0.000000 -0.000002 -0.000004 -8.728671 10.710558 0.000007 -0.000000 -0.000000 0.000000 -0.000680 9.278137 -0.000000 0.000000 -0.000001 
0.000006 104.270477 1.554256 0.000010 0.000003 -0.000113 -0.000005 10.181587 0.131522 0.000001 -0.000003 0.000084 -0.000000 9.893967 -1.470711 0.000001 0.000000 -0.000000 -0.000000 9.220802 -1.370642 0.000000 -0.000000 -0.000000 0.000001 16.740433 -2.049030 0.000000 -0.000000 -0.000000 0.000000 9.617859 1.685014 0.000000 0.000000 0.000000 0.000002 22.037384 7.501101 0.000000 -0.000000 0.000000 -4.569968 11.014880 -2.160881 0.000008 0.000001 -0.000038 -10.592869 -0.524678 -2.232016 72.436916 8.441652 -6.187734 -27.841537 0.000017 0.000527 -56.852463 118.111852 84.154713 -28.328835 0.000005 0.000024 -0.000323 -0.000044 0.000006 -2.464406 -1.573788 2.682332 -46.231508 -163.129315 -5.717672 -3.215248 -1.872535 1.924629 149.536255 33.315699 22.395593 -2.654948 -1.527875 1.513063 148.506467 27.608519 -27.843830 -2.018826 -1.152001 1.108066 -0.000006 0.000002 0.000002 -9.108386 -0.517553 2.260134 104.349684 15.641184 -20.124118 -3.700065 0.000295 0.001558 101.240267 13.232993 -16.058603 -2.850083 0.000367 -0.000251 99.602627 10.926483 -12.913627 -2.772196 -0.000019 -0.000017 -0.000003 0.000001 0.000001 -9.532604 0.000266 0.000251 95.242917 17.578562 -19.393014 -3.700084 0.000319 0.003986 94.514997 14.124578 -15.166223 -2.950050 0.000320 -0.001791 96.941216 12.297136 -13.862356 -2.946613 0.000014 -0.000149 -0.000001 0.000001 -0.000002 -9.103724 -0.042778 -1.864887 92.127600 20.024880 -20.719029 -3.379337 0.000307 -0.000788 92.438831 12.064942 -12.604227 -2.889754 0.000341 0.000638 99.170495 7.757068 -9.158562 -2.638802 -0.000005 0.000940 -0.000002 -0.000000 0.000000 -8.076762 -0.486416 -3.806030 82.967968 20.245413 -17.804126 -3.600059 0.000267 -0.003531 84.589318 10.795677 -9.493116 -2.100009 0.000314 -0.005498 88.393925 6.060376 -5.678527 -2.115779 -0.000042 -0.003680 0.000001 0.000002 -0.000005 4.570446 11.014691 -2.160851 -0.000018 0.000010 -0.000021 10.592354 -0.524547 -2.232259 68.942645 14.446221 -9.945748 27.841854 0.000115 -0.000226 106.708681 -63.146875 79.122878 28.328833 -0.000028 0.000022 0.000020 -0.000089 -0.000000 2.466103 -1.576154 2.681901 -25.777223 158.823659 -38.542826 3.217827 -1.871742 1.916380 162.984487 -28.250272 15.524363 2.656106 -1.528651 1.514480 144.083674 -26.240588 51.986226 2.020887 -1.154069 1.115140 0.000004 0.000001 0.000004 9.109381 -0.517851 2.259730 88.403261 -17.813282 17.318933 3.700032 0.000153 -0.000483 86.512248 -12.798654 12.063980 2.850052 0.000203 0.000201 85.374988 -9.908810 9.141811 2.774868 -0.000018 -0.000025 -0.000001 -0.000003 0.000002 9.533468 0.000207 -0.000097 88.258885 -16.952678 16.443561 3.700049 0.000185 -0.000401 90.957800 -11.206757 11.391759 2.950052 0.000216 -0.000206 92.306025 -10.891869 11.339445 2.952874 -0.000030 0.000065 0.000001 -0.000001 -0.000000 9.104595 -0.042844 -1.865227 87.388842 -16.602182 15.873819 3.150077 0.000201 -0.000105 94.034288 -11.458082 12.290413 2.950014 0.000208 -0.000102 96.281564 -9.826181 10.962478 2.644315 0.000029 0.000057 -0.000001 0.000001 0.000001 8.077853 -0.486718 -3.806415 79.117544 -17.826210 15.258778 3.600030 0.000187 0.014571 80.496266 -14.771476 12.964361 2.100039 0.000173 0.007537 82.740884 -10.487896 9.660606 2.125511 -0.000041 0.007518 -0.000001 -0.000000 0.000000 -8.207786 -6.751667 -1.599560 -0.077001 -0.000003 0.000080 -0.000002 -44.370110 0.345938 0.153719 -0.000000 -0.000000 0.000000 -44.423679 -3.043532 -0.076700 0.000000 -0.000002 -0.000006 -8.728667 10.710559 -0.000009 -0.000000 -0.000000 -0.000001 -0.000679 9.278123 0.000000 -0.000000 -0.000000 8.207792 -6.751710 -1.599556 -0.074518 -0.000003 0.000081 -0.000002 -44.370014 0.346960 0.148822 0.000002 0.000000 -0.000001 -44.423664 -3.044403 -0.074314 0.000000 -0.000002 -0.000004 -8.728671 10.710558 0.000007 -0.000000 -0.000000 0.000000 -0.000680 9.278137 -0.000000 0.000000 -0.000001 
0.000006 104.270477 1.554256 0.000010 0.000003 -0.000113 -0.000005 10.181587 0.131522 0.000001 -0.000003 0.000084 -0.000000 9.893967 -1.470711 0.000001 0.000000 -0.000000 -0.000000 9.220802 -1.370642 0.000000 -0.000000 -0.000000 0.000001 16.740433 -2.049030 0.000000 -0.000000 -0.000000 0.000000 9.617859 1.685014 0.000000 0.000000 0.000000 0.000002 22.037384 7.501101 0.000000 -0.000000 0.000000 -4.569968 11.014880 -2.160881 0.000008 0.000001 -0.000038 -10.592874 -0.524686 -2.232002 72.135943 10.391429 -7.578426 -27.841532 0.000016 0.000559 -56.225342 116.525322 81.636900 -28.328817 0.000006 0.000025 -0.000319 -0.000046 0.000005 -2.464418 -1.573809 2.682339 -45.760587 -162.202745 -4.669131 -3.215254 -1.872518 1.924621 149.583165 33.216552 21.539642 -2.654963 -1.527850 1.513064 148.247958 27.494404 -29.269109 -2.018838 -1.152001 1.108053 -0.000006 -0.000002 0.000000 -9.108378 -0.517556 2.260147 104.021315 15.897318 -20.332082 -3.700084 0.000319 0.001539 100.567569 13.341193 -15.999638 -2.850076 0.000361 -0.000246 98.965616 10.871328 -12.705849 -2.772186 -0.000017 -0.000027 -0.000002 0.000000 -0.000000 -9.532597 0.000262 0.000267 94.830947 18.136111 -19.860860 -3.700073 0.000323 0.003978 94.313574 14.295117 -15.296712 -2.950066 0.000332 -0.001776 96.797400 12.298872 -13.829650 -2.946634 0.000002 -0.000142 -0.000001 0.000000 -0.000002 -9.103705 -0.042765 -1.864863 91.362605 20.478685 -20.913802 -3.379341 0.000306 -0.000808 92.388506 12.241297 -12.776968 -2.889754 0.000354 0.000661 99.584138 7.703399 -9.162129 -2.638797 0.000001 0.000939 0.000002 0.000002 0.000001 -8.076760 -0.486402 -3.806041 82.979620 20.509699 -18.042734 -3.600066 0.000278 -0.003549 84.974807 10.965931 -9.712681 -2.100013 0.000315 -0.005492 89.244782 6.100994 -5.803342 -2.115767 -0.000043 -0.003683 -0.000000 0.000000 -0.000004 4.570446 11.014691 -2.160851 -0.000018 0.000010 -0.000021 10.592361 -0.524544 -2.232270 69.134369 11.930193 -8.235577 27.841833 0.000098 -0.000215 107.064677 -63.259566 79.612596 28.328825 -0.000029 0.000013 0.000022 -0.000089 -0.000000 2.466158 -1.576156 2.681882 -14.169901 158.227493 -59.300829 3.217855 -1.871798 1.916404 163.751873 -25.653234 26.110548 2.656089 -1.528659 1.514483 143.802557 -26.273294 52.743096 2.020872 -1.154061 1.115142 0.000001 -0.000002 0.000001 9.109393 -0.517859 2.259750 88.356140 -18.562690 18.034049 3.700042 0.000184 -0.000479 87.580750 -13.106207 12.584849 2.850053 0.000203 0.000201 86.947024 -10.170801 9.644150 2.774894 -0.000028 -0.000028 0.000001 -0.000001 0.000000 9.533463 0.000215 -0.000090 88.274936 -17.597381 17.074459 3.700055 0.000193 -0.000382 91.592987 -11.274471 11.587518 2.950050 0.000198 -0.000186 93.181231 -10.633309 11.239958 2.952883 -0.000031 0.000063 -0.000000 0.000000 -0.000001 9.104601 -0.042847 -1.865224 88.144602 -17.202250 16.663744 3.150038 0.000217 -0.000085 93.506840 -12.576158 13.365423 2.950020 0.000200 -0.000073 95.615333 -10.354656 11.417841 2.644325 0.000013 0.000057 -0.000001 0.000000 -0.000000 8.077854 -0.486719 -3.806403 80.099268 -18.939204 16.471351 3.599992 0.000166 0.014587 79.862813 -16.635628 14.398942 2.100042 0.000175 0.007528 81.214521 -11.800207 10.540012 2.125508 -0.000016 0.007516 -0.000002 -0.000002 -0.000005 -8.207786 -6.751667 -1.599560 -0.077001 -0.000003 0.000080 -0.000002 -44.370110 0.345938 0.153719 -0.000000 -0.000000 0.000000 -44.423679 -3.043532 -0.076700 0.000000 -0.000002 -0.000006 -8.728667 10.710559 -0.000009 -0.000000 -0.000000 -0.000001 -0.000679 9.278123 0.000000 -0.000000 -0.000000 8.207792 -6.751710 -1.599556 -0.074518 -0.000003 0.000081 -0.000002 -44.370014 0.346960 0.148822 0.000002 0.000000 -0.000001 -44.423664 -3.044403 -0.074314 0.000000 -0.000002 -0.000004 -8.728671 10.710558 0.000007 -0.000000 -0.000000 0.000000 -0.000680 9.278137 -0.000000 0.000000 -0.000001 
